<svg xmlns="http://www.w3.org/2000/svg" shape-rendering="crispEdges" viewBox="0 -0.5 400 400">
    <path stroke="#4d4d67" d="M225 50h50m-50 1h50m-50 1h50m-50 1h50m-50 1h50m-50 1h50m-50 1h50m-50 1h50m-50 1h50m-50 1h50m-50 1h50m-50 1h50m-50 1h50m-50 1h50m-50 1h50m-50 1h50m-50 1h50m-50 1h50m-50 1h50m-50 1h50m-50 1h50m-50 1h50m-50 1h50m-50 1h50m-50 1h50m-100 1h50m50 0h25m-125 1h50m50 0h25m-125 1h50m50 0h25m-125 1h50m50 0h25m-125 1h50m50 0h25m-125 1h50m50 0h25m-125 1h50m50 0h25m-125 1h50m50 0h25m-125 1h50m50 0h25m-125 1h50m50 0h25m-125 1h50m50 0h25m-125 1h50m50 0h25m-125 1h50m50 0h25m-125 1h50m50 0h25m-125 1h50m50 0h25m-125 1h50m50 0h25m-125 1h50m50 0h25m-125 1h50m50 0h25m-125 1h50m50 0h25m-125 1h50m50 0h25m-125 1h50m50 0h25m-125 1h50m50 0h25m-125 1h50m50 0h25m-125 1h50m50 0h25m-125 1h50m50 0h25m-175 1h50m50 0h50m25 0h25m-200 1h50m50 0h50m25 0h25m-200 1h50m50 0h50m25 0h25m-200 1h50m50 0h50m25 0h25m-200 1h50m50 0h50m25 0h25m-200 1h50m50 0h50m25 0h25m-200 1h50m50 0h50m25 0h25m-200 1h50m50 0h50m25 0h25m-200 1h50m50 0h50m25 0h25m-200 1h50m50 0h50m25 0h25m-200 1h50m50 0h50m25 0h25m-200 1h50m50 0h50m25 0h25m-200 1h50m50 0h50m25 0h25m-200 1h50m50 0h50m25 0h25m-200 1h50m50 0h50m25 0h25m-200 1h50m50 0h50m25 0h25m-200 1h50m50 0h50m25 0h25m-200 1h50m50 0h50m25 0h25m-200 1h50m50 0h50m25 0h25m-200 1h50m50 0h50m25 0h25m-200 1h50m50 0h50m25 0h25m-200 1h50m50 0h50m25 0h25m-200 1h50m50 0h50m25 0h25m-200 1h50m50 0h50m25 0h25m-200 1h50m50 0h50m25 0h25m-250 1h50m50 0h50m50 0h25m25 0h25m-275 1h50m50 0h50m50 0h25m25 0h25m-275 1h50m50 0h50m50 0h25m25 0h25m-275 1h50m50 0h50m50 0h25m25 0h25m-275 1h50m50 0h50m50 0h25m25 0h25m-275 1h50m50 0h50m50 0h25m25 0h25m-275 1h50m50 0h50m50 0h25m25 0h25m-275 1h50m50 0h50m50 0h25m25 0h25m-275 1h50m50 0h50m50 0h25m25 0h25m-275 1h50m50 0h50m50 0h25m25 0h25m-275 1h50m50 0h50m50 0h25m25 0h25m-275 1h50m50 0h50m50 0h25m25 0h25m-275 1h50m50 0h50m50 0h25m25 0h25m-275 1h50m50 0h50m50 0h25m25 0h25m-275 1h50m50 0h50m50 0h25m25 0h25m-275 1h50m50 0h50m50 0h25m25 0h25m-275 1h50m50 0h50m50 0h25m25 0h25m-275 1h50m50 0h50m50 0h25m25 0h25m-275 1h50m50 0h50m50 0h25m25 0h25m-275 1h50m50 0h50m50 0h25m25 0h25m-275 1h50m50 0h50m50 0h25m25 0h25m-275 1h50m50 0h50m50 0h25m25 0h25m-275 1h50m50 0h50m50 0h25m25 0h25m-275 1h50m50 0h50m50 0h25m25 0h25m-275 1h50m50 0h50m50 0h25m25 0h25m-325 1h50m50 0h50m125 0h25m25 0h25m-350 1h50m50 0h50m125 0h25m25 0h25m-350 1h50m50 0h50m125 0h25m25 0h25m-350 1h50m50 0h50m125 0h25m25 0h25m-350 1h50m50 0h50m125 0h25m25 0h25m-350 1h50m50 0h50m125 0h25m25 0h25m-350 1h50m50 0h50m125 0h25m25 0h25m-350 1h50m50 0h50m125 0h25m25 0h25m-350 1h50m50 0h50m125 0h25m25 0h25m-350 1h50m50 0h50m125 0h25m25 0h25m-350 1h50m50 0h50m125 0h25m25 0h25m-350 1h50m50 0h50m125 0h25m25 0h25m-350 1h50m50 0h50m125 0h25m25 0h25m-350 1h50m50 0h50m125 0h25m25 0h25m-350 1h50m50 0h50m125 0h25m25 0h25m-350 1h50m50 0h50m125 0h25m25 0h25m-350 1h50m50 0h50m125 0h25m25 0h25m-350 1h50m50 0h50m125 0h25m25 0h25m-350 1h50m50 0h50m125 0h25m25 0h25m-350 1h50m50 0h50m125 0h25m25 0h25m-350 1h50m50 0h50m125 0h25m25 0h25m-350 1h50m50 0h50m125 0h25m25 0h25m-350 1h50m50 0h50m125 0h25m25 0h25m-350 1h50m50 0h50m125 0h25m25 0h25m-350 1h50m50 0h50m125 0h25m25 0h25M0 175h25m350 0h25M0 176h25m350 0h9m1 0h15M0 177h25m350 0h25M0 178h25m350 0h25M0 179h25m350 0h25M0 180h25m350 0h25M0 181h25m350 0h25M0 182h25m350 0h25M0 183h25m350 0h25M0 184h25m350 0h25M0 185h25m350 0h25M0 186h25m350 0h25M0 187h25m350 0h25M0 188h25m350 0h25M0 189h25m350 0h25M0 190h25m350 0h25M0 191h25m350 0h25M0 192h25m350 0h25M0 193h25m350 0h25M0 194h25m350 0h25M0 195h25m350 0h25M0 196h25m350 0h25M0 197h25m350 0h25M0 198h25m350 0h25M0 199h25m350 0h25M0 200h25m-25 1h25m-25 1h25m-25 1h25m-25 1h25m-25 1h25m-25 1h25m-25 1h25m-25 1h25m-25 1h25m-25 1h25m-25 1h25m-25 1h25m-25 1h25m-25 1h25m-25 1h25m-25 1h25m-25 1h25m-25 1h25m-25 1h25m-25 1h25m-25 1h25m-25 1h25m-25 1h25m-25 1h25"/>
    <path stroke="#cbccd4" d="M225 75h25m-25 1h25m-25 1h25m-25 1h25m-25 1h25m-25 1h25m-25 1h25m-25 1h25m-25 1h25m-25 1h25m-25 1h25m-25 1h25m-25 1h25m-25 1h25m-25 1h25m-25 1h25m-25 1h25m-25 1h25m-25 1h25m-25 1h25m-25 1h25m-25 1h25m-25 1h25m-25 1h25m-25 1h25m-50 1h25m-25 1h25m-25 1h25m-25 1h25m-25 1h25m-25 1h25m-25 1h25m-25 1h25m-25 1h25m-25 1h25m-25 1h25m-25 1h25m-25 1h25m-25 1h25m-25 1h25m-25 1h25m-25 1h25m-25 1h25m-25 1h25m-25 1h25m-25 1h25m-25 1h25m-25 1h25m-25 1h25m-25 1h25m-75 1h25m-25 1h25m-25 1h25m-25 1h25m-25 1h25m-25 1h25m-25 1h25m-25 1h25m-25 1h25m-25 1h25m-25 1h25m-25 1h25m-25 1h25m-25 1h25m-25 1h25m-25 1h25m-25 1h25m-25 1h25m-25 1h25m-25 1h25m-25 1h25m-25 1h25m-25 1h25m-25 1h25m-25 1h25M75 175h75m-75 1h75m-75 1h75m-75 1h75m-75 1h75m-75 1h75m-75 1h75m-75 1h75m-75 1h75m-75 1h75m-75 1h75m-75 1h75m-75 1h75m-75 1h75m-75 1h75m-75 1h75m-75 1h75m-75 1h75m-75 1h75m-75 1h75m-75 1h75m-75 1h75m-75 1h75m-75 1h75m-75 1h75m-25 1h50m50 0h25m-125 1h50m50 0h25m-125 1h50m50 0h25m-125 1h50m50 0h25m-125 1h50m50 0h25m-125 1h50m50 0h25m-125 1h50m50 0h25m-125 1h50m50 0h25m-125 1h50m50 0h25m-125 1h50m50 0h25m-125 1h50m50 0h25m-125 1h50m50 0h25m-125 1h50m50 0h25m-125 1h50m50 0h25m-125 1h50m50 0h25m-125 1h50m50 0h25m-125 1h50m50 0h25m-125 1h50m50 0h25m-125 1h50m50 0h25m-125 1h50m50 0h25m-125 1h50m50 0h25m-125 1h50m50 0h25m-125 1h50m50 0h25m-125 1h50m50 0h25m-125 1h50m50 0h25m-100 1h75m-75 1h75m-75 1h75m-75 1h75m-75 1h75m-75 1h75m-75 1h75m-75 1h75m-75 1h75m-75 1h75m-75 1h75m-75 1h75m-75 1h75m-75 1h75m-75 1h75m-75 1h75m-75 1h75m-75 1h75m-75 1h75m-75 1h75m-75 1h75m-75 1h75m-75 1h75m-75 1h75m-75 1h75m-75 76h25m-25 1h25m-25 1h25m-25 1h25m-25 1h25m-25 1h25m-25 1h25m-25 1h25m-25 1h25m-25 1h25m-25 1h25m-25 1h25m-25 1h25m-25 1h25m-25 1h25m-25 1h25m-25 1h25m-25 1h25m-25 1h25m-25 1h25m-25 1h25m-25 1h25m-25 1h25m-25 1h25m-25 1h25"/>
    <path stroke="#adb0c4" d="M250 75h25m-25 1h25m-25 1h25m-25 1h25m-25 1h25m-25 1h25m-25 1h25m-25 1h25m-25 1h25m-25 1h25m-25 1h25m-25 1h25m-25 1h25m-25 1h25m-25 1h25m-25 1h25m-25 1h25m-25 1h25m-25 1h25m-25 1h25m-25 1h14m1 0h10m-25 1h25m-25 1h25m-25 1h25m-25 1h25m0 1h25m-25 1h25m-25 1h25m-25 1h25m-25 1h25m-25 1h25m-25 1h25m-25 1h25m-25 1h25m-25 1h25m-25 1h25m-25 1h25m-25 1h25m-25 1h25m-25 1h25m-25 1h25m-25 1h25m-25 1h25m-25 1h25m-25 1h25m-25 1h25m-25 1h25m-25 1h25m-25 1h25m-25 1h25m0 1h25m-25 1h25m-25 1h25m-25 1h25m-25 1h25m-25 1h25m-25 1h25m-25 1h25m-25 1h25m-25 1h25m-25 1h25m-25 1h25m-25 1h25m-25 1h25m-25 1h25m-25 1h25m-25 1h25m-25 1h25m-25 1h25m-25 1h25m-25 1h25m-25 1h25m-25 1h25m-25 1h25m-25 1h25m-50 26h50m-50 1h50m-50 1h50m-50 1h50m-50 1h50m-50 1h50m-50 1h50m-50 1h50m-50 1h50m-50 1h50m-50 1h50m-50 1h50m-50 1h50m-50 1h50m-50 1h50m-50 1h17m1 0h32m-50 1h50m-50 1h50m-50 1h50m-50 1h50m-50 1h50m-50 1h50m-50 1h50m-50 1h50m-50 1h50m-75 1h25m-25 1h25m-25 1h25m-25 1h25m-25 1h25m-25 1h25m-25 1h25m-25 1h25m-25 1h25m-25 1h25m-25 1h25m-25 1h25m-25 1h25m-25 1h25m-25 1h25m-25 1h25m-25 1h25m-25 1h25m-25 1h25m-25 1h25m-25 1h25m-25 1h25m-25 1h25m-25 1h25m-25 1h25"/>
    <path stroke="#afb0c4" d="M264 95h1"/>
    <path stroke="#dedfe3" d="M175 100h25m-25 1h25m-25 1h25m-25 1h25m-25 1h25m-25 1h25m-25 1h25m-25 1h25m-25 1h25m-25 1h25m-25 1h25m-25 1h25m-25 1h25m-25 1h25m-25 1h25m-25 1h25m-25 1h25m-25 1h25m-25 1h25m-25 1h25m-25 1h25m-25 1h25m-25 1h25m-25 1h25m-25 1h25m-75 1h25m-25 1h25m-25 1h25m-25 1h25m-25 1h25m-25 1h25m-25 1h25m-25 1h25m-25 1h25m-25 1h25m-25 1h25m-25 1h25m-25 1h25m-25 1h25m-25 1h25m-25 1h25m-25 1h25m-25 1h25m-25 1h25m-25 1h25m-25 1h25m-25 1h25m-25 1h25m-25 1h25m-25 1h25m-50 1h25m-25 1h25m-25 1h25m-25 1h25m-25 1h25m-25 1h25m-25 1h25m-25 1h25m-25 1h25m-25 1h25m-25 1h25m-25 1h25m-25 1h25m-25 1h25m-25 1h25m-25 1h25m-25 1h25m-25 1h25m-25 1h25m-25 1h25m-25 1h25m-25 1h25m-25 1h25m-25 1h25m-25 1h25m-75 1h25m250 0h50m-325 1h25m250 0h50m-325 1h25m250 0h50m-325 1h25m250 0h50m-325 1h25m250 0h50m-325 1h25m250 0h50m-325 1h25m250 0h50m-325 1h25m250 0h50m-325 1h25m250 0h50m-325 1h25m250 0h50m-325 1h25m251 0h49m-325 1h25m250 0h50m-325 1h25m250 0h50m-325 1h25m250 0h50m-325 1h25m250 0h50m-325 1h25m250 0h50m-325 1h25m250 0h50m-325 1h25m250 0h50m-325 1h25m250 0h50m-325 1h25m250 0h50m-325 1h25m250 0h50m-325 1h25m250 0h50m-325 1h25m250 0h50m-325 1h25m250 0h50m-325 1h25m250 0h50m-275 1h25m175 0h25m-225 1h25m175 0h25m-225 1h25m175 0h25m-225 1h25m175 0h25m-225 1h25m175 0h25m-225 1h25m175 0h25m-225 1h25m175 0h25m-225 1h25m175 0h25m-225 1h25m175 0h25m-225 1h25m175 0h25m-225 1h25m175 0h25m-225 1h25m175 0h25m-225 1h25m175 0h25m-225 1h25m175 0h25m-225 1h25m175 0h25m-225 1h25m175 0h25m-225 1h25m175 0h25m-225 1h25m175 0h25m-225 1h25m175 0h25m-225 1h25m175 0h25m-225 1h25m175 0h25m-225 1h25m175 0h25m-225 1h25m175 0h25m-225 1h25m175 0h25m-225 1h25m175 0h25m-200 1h25m100 0h25m-150 1h25m100 0h25m-150 1h25m100 0h25m-150 1h25m100 0h25m-150 1h25m100 0h25m-150 1h25m100 0h25m-150 1h25m100 0h25m-150 1h25m100 0h25m-150 1h25m100 0h25m-150 1h25m100 0h25m-150 1h25m100 0h25m-150 1h25m100 0h25m-150 1h25m100 0h25m-150 1h25m100 0h25m-150 1h25m100 0h25m-150 1h25m100 0h25m-150 1h25m100 0h25m-150 1h25m100 0h25m-150 1h25m100 0h25m-150 1h25m100 0h25m-150 1h25m100 0h25m-150 1h25m100 0h25m-150 1h25m100 0h25m-150 1h25m100 0h25m-150 1h25m100 0h25m-125 1h25m25 0h25m-75 1h25m25 0h25m-75 1h25m25 0h25m-75 1h25m25 0h25m-75 1h25m25 0h25m-75 1h25m25 0h25m-75 1h25m25 0h25m-75 1h25m25 0h25m-75 1h25m25 0h25m-75 1h25m25 0h25m-75 1h25m25 0h25m-75 1h25m25 0h25m-75 1h25m25 0h25m-75 1h25m25 0h25m-75 1h25m25 0h25m-75 1h25m25 0h25m-75 1h25m25 0h25m-75 1h25m25 0h25m-75 1h25m25 0h25m-75 1h25m25 0h25m-75 1h25m25 0h25m-75 1h25m25 0h25m-75 1h25m25 0h25m-75 1h25m25 0h25m-75 1h25m25 0h25m-75 26h25m-25 1h25m-25 1h25m-25 1h25m-25 1h25m-25 1h25m-25 1h25m-25 1h25m-25 1h25m-25 1h25m-25 1h25m-25 1h25m-25 1h25m-25 1h25m-25 1h25m-25 1h25m-25 1h25m-25 1h25m-25 1h25m-25 1h25m-25 1h25m-25 1h25m-25 1h25m-25 1h25m-25 1h25"/>
    <path stroke="#daffff" d="M225 125h25m-25 1h25m-25 1h25m-25 1h25m-25 1h25m-25 1h25m-25 1h25m-25 1h25m-25 1h25m-25 1h25m-25 1h25m-25 1h25m-25 1h25m-25 1h25m-25 1h25m-25 1h25m-25 1h25m-25 1h25m-25 1h25m-25 1h25m-25 1h25m-25 1h25m-25 1h25m-25 1h25m-25 1h25m-75 1h25m-25 1h25m-25 1h25m-25 1h25m-25 1h25m-25 1h25m-25 1h25m-25 1h25m-25 1h25m-25 1h25m-25 1h25m-25 1h25m-25 1h25m-25 1h25m-25 1h25m-25 1h25m-25 1h25m-25 1h25m-25 1h25m-25 1h25m-25 1h25m-25 1h25m-25 1h25m-25 1h25m-25 1h25"/>
    <path stroke="#7da9d2" d="M250 125h25m-25 1h25m-25 1h25m-25 1h25m-25 1h25m-25 1h25m-25 1h25m-25 1h25m-25 1h25m-25 1h25m-25 1h25m-25 1h25m-25 1h25m-25 1h25m-25 1h25m-25 1h25m-25 1h25m-25 1h25m-25 1h25m-25 1h25m-25 1h25m-25 1h25m-25 1h25m-25 1h25m-25 1h25m-75 1h50m25 0h25m-100 1h50m25 0h25m-100 1h50m25 0h25m-100 1h50m25 0h25m-100 1h50m25 0h25m-100 1h50m25 0h25m-100 1h50m25 0h25m-100 1h50m25 0h25m-100 1h50m25 0h25m-100 1h50m25 0h25m-100 1h50m25 0h25m-100 1h50m25 0h25m-100 1h50m25 0h25m-100 1h50m25 0h25m-100 1h50m25 0h25m-100 1h50m25 0h25m-100 1h50m25 0h25m-100 1h50m25 0h25m-100 1h50m25 0h25m-100 1h50m25 0h25m-100 1h50m25 0h25m-100 1h50m25 0h25m-100 1h50m25 0h25m-100 1h50m25 0h25m-100 1h50m25 0h25m-150 1h50m25 0h50m-125 1h50m25 0h50m-125 1h50m25 0h50m-125 1h50m25 0h50m-125 1h50m25 0h50m-125 1h50m25 0h50m-125 1h50m25 0h50m-125 1h50m25 0h50m-125 1h50m25 0h50m-125 1h50m25 0h50m-125 1h50m25 0h50m-125 1h50m25 0h50m-125 1h50m25 0h50m-125 1h50m25 0h50m-125 1h50m25 0h50m-125 1h50m25 0h50m-125 1h50m25 0h50m-125 1h50m25 0h50m-125 1h50m25 0h50m-125 1h50m25 0h50m-125 1h50m25 0h50m-125 1h50m25 0h50m-125 1h50m25 0h50m-125 1h50m25 0h50m-125 1h50m25 0h50m-100 1h50m-50 1h50m-50 1h50m-50 1h50m-50 1h50m-50 1h50m-50 1h50m-50 1h50m-50 1h50m-50 1h50m-50 1h50m-50 1h50m-50 1h50m-50 1h50m-50 1h50m-50 1h50m-50 1h50m-50 1h50m-50 1h50m-50 1h50m-50 1h50m-50 1h50m-50 1h50m-50 1h50m-50 1h50"/>
    <path stroke="#f2f2f2" d="M75 150h25m-25 1h25m-25 1h25m-25 1h25m-25 1h25m-25 1h25m-25 1h25m-25 1h25m-25 1h25m-25 1h25m-25 1h25m-25 1h25m-25 1h25m-25 1h25m-25 1h25m-25 1h25m-25 1h25m-25 1h25m-25 1h25m-25 1h25m-25 1h25m-25 1h25m-25 1h25m-25 1h25m-25 1h25m-75 1h25m-25 1h25m-25 1h25m-25 1h25m-25 1h25m-25 1h25m-25 1h25m-25 1h25m-25 1h25m-25 1h25m-25 1h25m-25 1h25m-25 1h25m-25 1h25m-25 1h25m-25 1h25m-25 1h25m-25 1h25m-25 1h25m-25 1h25m-25 1h25m-25 1h25m-25 1h25m-25 1h25m-25 1h25m225 1h25m-25 1h25m-25 1h25m-25 1h25m-25 1h25m-25 1h25m-25 1h25m-25 1h25m-25 1h25m-25 1h25m-25 1h25m-25 1h25m-25 1h25m-25 1h25m-25 1h25m-25 1h25m-25 1h25m-25 1h25m-25 1h25m-25 1h25m-25 1h25m-25 1h25m-25 1h25m-25 1h25m-25 1h25m-75 1h25m-25 1h25m-25 1h25m-25 1h25m-25 1h25m-25 1h25m-25 1h25m-25 1h25m-25 1h25m-25 1h25m-25 1h25m-25 1h25m-25 1h25m-25 1h25m-25 1h25m-25 1h25m-25 1h25m-25 1h25m-25 1h25m-25 1h25m-25 1h25m-25 1h25m-25 1h25m-25 1h25m-25 1h25m-75 1h25m-25 1h25m-25 1h25m-25 1h25m-25 1h25m-25 1h25m-25 1h25m-25 1h25m-25 1h25m-25 1h25m-25 1h25m-25 1h25m-25 1h25m-25 1h25m-25 1h25m-25 1h25m-25 1h25m-25 1h25m-25 1h25m-25 1h25m-25 1h25m-25 1h25m-25 1h25m-25 1h25m-25 1h25m-75 1h50m-50 1h50m-50 1h50m-50 1h50m-50 1h50m-50 1h50m-50 1h50m-50 1h50m-50 1h50m-50 1h50m-50 1h50m-50 1h50m-50 1h50m-50 1h50m-50 1h50m-50 1h50m-50 1h50m-50 1h50m-50 1h50m-50 1h50m-50 1h50m-50 1h50m-50 1h50m-50 1h50m-50 1h50"/>
    <path stroke="#9cd3ff" d="M250 150h25m-25 1h25m-25 1h25m-25 1h25m-25 1h25m-25 1h25m-25 1h25m-25 1h25m-25 1h25m-25 1h25m-25 1h25m-25 1h25m-25 1h25m-25 1h25m-25 1h25m-25 1h25m-25 1h25m-25 1h25m-25 1h25m-25 1h25m-25 1h25m-25 1h25m-25 1h25m-25 1h25m-25 1h25m-75 1h25m-25 1h25m-25 1h25m-25 1h25m-25 1h25m-25 1h25m-25 1h25m-25 1h25m-25 1h25m-25 1h25m-25 1h25m-25 1h25m-25 1h25m-25 1h25m-25 1h25m-25 1h25m-25 1h25m-25 1h25m-25 1h25m-25 1h25m-25 1h25m-25 1h25m-25 1h25m-25 1h25m-25 1h25"/>
    <path stroke="#9a9fb4" d="M325 150h25m-25 1h25m-25 1h25m-25 1h25m-25 1h25m-25 1h25m-25 1h25m-25 1h25m-25 1h25m-25 1h25m-25 1h25m-25 1h25m-25 1h25m-25 1h25m-25 1h25m-25 1h25m-25 1h25m-25 1h25m-25 1h25m-25 1h25m-25 1h25m-25 1h25m-25 1h25m-25 1h25m-25 1h25M25 200h25m-25 1h25m-25 1h25m-25 1h25m-25 1h25m-25 1h25m-25 1h25m-25 1h25m-25 1h25m-25 1h25m-25 1h25m-25 1h25m-25 1h25m-25 1h25m-25 1h25m-25 1h25m-25 1h25m-25 1h25m-25 1h25m-25 1h25m-25 1h25m-25 1h25m-25 1h25m-25 1h25m-25 1h25m125 51h50m-50 1h50m-50 1h50m-50 1h50m-50 1h50m-50 1h50m-50 1h50m-50 1h50m-50 1h50m-50 1h50m-50 1h50m-50 1h50m-50 1h50m-50 1h50m-50 1h50m-50 1h50m-50 1h50m-50 1h50m-50 1h50m-50 1h50m-50 1h50m-50 1h50m-50 1h50m-50 1h50m-50 1h50m-100 1h25m25 0h25m-75 1h25m25 0h25m-75 1h25m25 0h25m-75 1h25m25 0h25m-75 1h25m25 0h25m-75 1h25m25 0h25m-75 1h25m25 0h25m-75 1h25m25 0h25m-75 1h25m25 0h25m-75 1h25m25 0h25m-75 1h25m25 0h25m-75 1h25m25 0h25m-75 1h25m25 0h25m-75 1h25m25 0h25m-75 1h25m25 0h25m-75 1h25m25 0h25m-75 1h25m25 0h25m-75 1h25m25 0h25m-75 1h25m25 0h25m-75 1h25m25 0h25m-75 1h25m25 0h25m-75 1h25m25 0h25m-75 1h25m25 0h25m-75 1h25m25 0h25m-75 1h25m25 0h25"/>
    <path stroke="#4d4c67" d="M384 176h1"/>
    <path stroke="#dedee3" d="M325 185h1"/>
    <path stroke="#adb0c6" d="M292 190h1"/>
    <path stroke="#5a479e" d="M50 200h50m-50 1h50m-50 1h50m-50 1h50m-50 1h50m-50 1h50m-50 1h50m-50 1h50m-50 1h50m-50 1h50m-50 1h50m-50 1h50m-50 1h50m-50 1h50m-50 1h50m-50 1h50m-50 1h50m-50 1h50m-50 1h50m-50 1h50m-50 1h50m-50 1h50m-50 1h50m-50 1h50m-50 1h50m-50 1h25m25 0h25m-75 1h25m25 0h25m-75 1h25m25 0h25m-75 1h25m25 0h25m-75 1h25m25 0h25m-75 1h25m25 0h25m-75 1h25m25 0h25m-75 1h25m25 0h25m-75 1h25m25 0h25m-75 1h25m25 0h25m-75 1h25m25 0h25m-75 1h25m25 0h25m-75 1h25m25 0h25m-75 1h25m25 0h25m-75 1h25m25 0h25m-75 1h25m25 0h25m-75 1h25m25 0h25m-75 1h25m25 0h25m-75 1h25m25 0h25m-75 1h25m25 0h25m-75 1h25m25 0h25m-75 1h25m25 0h25m-75 1h25m25 0h25m-75 1h25m25 0h25m-75 1h25m25 0h25m-75 1h25m50 0h25m-100 1h25m50 0h25m-100 1h25m50 0h25m-100 1h25m50 0h25m-100 1h25m50 0h25m-100 1h25m50 0h25m-100 1h25m50 0h25m-100 1h25m50 0h25m-100 1h25m50 0h25m-100 1h25m50 0h25m-100 1h25m50 0h25m-100 1h25m50 0h25m-100 1h25m50 0h25m-100 1h25m50 0h25m-100 1h25m50 0h25m-100 1h25m50 0h25m-100 1h25m50 0h25m-100 1h25m50 0h25m-100 1h25m50 0h25m-100 1h25m50 0h25m-100 1h25m50 0h25m-100 1h25m50 0h25m-100 1h25m50 0h25m-100 1h25m50 0h25m-100 1h25m50 0h25m-75 1h25m-25 1h25m-25 1h25m-25 1h25m-25 1h25m-25 1h25m-25 1h25m-25 1h25m-25 1h25m-25 1h25m-25 1h25m-25 1h25m-25 1h25m-25 1h25m-25 1h25m-25 1h25m-25 1h25m-25 1h25m-25 1h25m-25 1h25m-25 1h25m-25 1h25m-25 1h25m-25 1h25m-25 1h25m0 1h25m-25 1h25m-25 1h25m-25 1h25m-25 1h25m-25 1h25m-25 1h25m-25 1h25m-25 1h25m-25 1h25m-25 1h25m-25 1h25m-25 1h25m-25 1h25m-25 1h25m-25 1h25m-25 1h25m-25 1h25m-25 1h25m-25 1h25m-25 1h25m-25 1h25m-25 1h25m-25 1h25m-25 1h25"/>
    <path stroke="#878fa5" d="M325 200h25m-25 1h25m-25 1h25m-25 1h25m-25 1h25m-25 1h25m-25 1h25m-25 1h25m-25 1h25m-25 1h25m-25 1h25m-25 1h25m-25 1h25m-25 1h25m-25 1h25m-25 1h25m-25 1h25m-25 1h25m-25 1h25m-25 1h25m-25 1h25m-25 1h25m-25 1h25m-25 1h25m-25 1h25m-325 1h25m225 0h50m-300 1h25m225 0h50m-300 1h25m225 0h50m-300 1h25m225 0h50m-300 1h25m225 0h50m-300 1h25m225 0h50m-300 1h25m225 0h50m-300 1h25m225 0h50m-300 1h25m225 0h50m-300 1h25m225 0h50m-300 1h25m225 0h50m-300 1h25m225 0h50m-300 1h25m225 0h50m-300 1h25m225 0h50m-300 1h25m225 0h50m-300 1h25m225 0h50m-300 1h25m225 0h50m-300 1h25m225 0h50m-300 1h25m225 0h50m-300 1h25m225 0h50m-300 1h25m225 0h50m-300 1h25m225 0h50m-300 1h25m225 0h50m-300 1h25m225 0h50m-300 1h25m225 0h50m-100 1h50m-50 1h50m-50 1h50m-50 1h50m-50 1h50m-50 1h50m-50 1h50m-50 1h50m-50 1h50m-50 1h50m-50 1h50m-50 1h50m-50 1h29m1 0h20m-50 1h50m-50 1h50m-50 1h50m-50 1h50m-50 1h50m-50 1h50m-50 1h50m-50 1h50m-50 1h50m-50 1h50m-50 1h50m-50 1h50m-50 1h25m-25 1h25m-25 1h25m-25 1h25m-25 1h25m-25 1h25m-25 1h25m-25 1h25m-25 1h25m-25 1h25m-25 1h25m-25 1h25m-25 1h25m-25 1h25m-25 1h25m-25 1h25m-25 1h25m-25 1h25m-25 1h25m-25 1h25m-25 1h25m-25 1h25m-25 1h25m-25 1h25m-25 1h25m-50 1h25m-25 1h25m-25 1h25m-25 1h25m-25 1h25m-25 1h25m-25 1h25m-25 1h25m-25 1h25m-25 1h25m-25 1h25m-25 1h25m-25 1h25m-25 1h25m-25 1h25m-25 1h25m-25 1h25m-25 1h25m-25 1h25m-25 1h25m-25 1h25m-25 1h25m-25 1h25m-25 1h25m-25 1h25m-100 1h25m-25 1h25m-25 1h25m-25 1h25m-25 1h25m-25 1h25m-25 1h25m-25 1h25m-25 1h25m-25 1h25m-25 1h25m-25 1h25m-25 1h25m-25 1h25m-25 1h25m-25 1h25m-25 1h25m-25 1h25m-25 1h25m-25 1h25m-25 1h25m-25 1h25m-25 1h25m-25 1h25m-25 1h25"/>
    <path stroke="#696d88" d="M350 200h25m-25 1h25m-25 1h25m-25 1h25m-25 1h25m-25 1h25m-25 1h25m-25 1h25m-25 1h25m-25 1h25m-25 1h25m-25 1h25m-25 1h25m-25 1h25m-25 1h25m-25 1h25m-25 1h25m-25 1h25m-25 1h25m-25 1h25m-25 1h25m-25 1h25m-25 1h25m-25 1h25m-25 1h25m-50 1h50m-50 1h50m-50 1h50m-50 1h50m-50 1h50m-50 1h50m-50 1h50m-50 1h50m-50 1h50m-50 1h50m-50 1h50m-50 1h50m-50 1h50m-50 1h50m-50 1h50m-50 1h50m-50 1h50m-50 1h50m-50 1h50m-50 1h50m-50 1h50m-50 1h50m-50 1h50m-50 1h50m-50 1h50m-100 1h50m-50 1h50m-50 1h50m-50 1h50m-50 1h50m-50 1h50m-50 1h50m-50 1h50m-50 1h50m-50 1h50m-50 1h50m-50 1h50m-50 1h50m-50 1h50m-50 1h50m-50 1h50m-50 1h50m-50 1h50m-50 1h50m-50 1h50m-50 1h50m-50 1h50m-50 1h50m-50 1h50m-50 1h50m-75 1h25m-25 1h25m-25 1h25m-25 1h25m-25 1h25m-25 1h25m-25 1h25m-25 1h25m-25 1h25m-25 1h25m-25 1h25m-25 1h25m-25 1h25m-25 1h25m-25 1h25m-25 1h25m-25 1h25m-25 1h25m-25 1h25m-25 1h25m-25 1h25m-25 1h25m-25 1h25m-25 1h25m-25 1h25"/>
    <path stroke="#413f54" d="M375 200h25m-25 1h25m-25 1h25m-25 1h25m-25 1h25m-25 1h25m-25 1h25m-25 1h25m-25 1h25m-25 1h25m-25 1h25m-25 1h25m-25 1h25m-25 1h25m-25 1h25m-25 1h25m-25 1h25m-25 1h25m-25 1h25m-25 1h25m-25 1h25m-25 1h25m-25 1h14m1 0h10m-25 1h25m-25 1h25M0 225h25m350 0h25M0 226h25m350 0h25M0 227h25m350 0h25M0 228h25m350 0h25M0 229h25m350 0h25M0 230h25m350 0h25M0 231h25m350 0h25M0 232h25m350 0h25M0 233h25m350 0h25M0 234h25m350 0h25M0 235h25m350 0h25M0 236h25m350 0h25M0 237h25m350 0h25M0 238h25m350 0h25M0 239h25m350 0h25M0 240h25m350 0h25M0 241h25m350 0h25M0 242h25m350 0h25M0 243h25m350 0h25M0 244h25m350 0h25M0 245h25m350 0h25M0 246h25m350 0h25M0 247h25m350 0h25M0 248h25m350 0h25M0 249h25m350 0h25m-375 1h25m275 0h50m-350 1h25m275 0h50m-350 1h25m275 0h50m-350 1h25m275 0h50m-350 1h25m275 0h50m-350 1h25m275 0h50m-350 1h25m275 0h50m-350 1h25m275 0h50m-350 1h25m275 0h50m-350 1h25m275 0h50m-350 1h25m275 0h50m-350 1h25m275 0h50m-350 1h25m275 0h50m-350 1h25m275 0h50m-350 1h25m275 0h50m-350 1h25m275 0h50m-350 1h25m275 0h50m-350 1h25m275 0h50m-350 1h25m275 0h50m-350 1h25m275 0h50m-350 1h25m275 0h50m-350 1h25m275 0h50m-350 1h25m275 0h50m-350 1h25m275 0h50m-350 1h25m275 0h50m-325 1h25m200 0h50m-275 1h25m200 0h50m-275 1h25m200 0h50m-275 1h25m200 0h50m-275 1h25m200 0h50m-275 1h25m200 0h50m-275 1h25m200 0h50m-275 1h25m200 0h50m-275 1h25m200 0h50m-275 1h25m200 0h50m-275 1h25m200 0h50m-275 1h25m200 0h50m-275 1h25m200 0h50m-275 1h25m200 0h50m-275 1h25m200 0h50m-275 1h25m200 0h50m-275 1h25m200 0h50m-275 1h25m200 0h50m-275 1h25m200 0h50m-275 1h25m200 0h50m-275 1h25m200 0h50m-275 1h25m200 0h50m-275 1h25m200 0h50m-275 1h25m200 0h50m-275 1h25m200 0h50m-250 1h25m125 0h50m-200 1h25m125 0h50m-200 1h25m125 0h50m-200 1h25m125 0h33m1 0h16m-200 1h25m125 0h50m-200 1h25m125 0h50m-200 1h25m125 0h50m-200 1h25m125 0h50m-200 1h25m125 0h50m-200 1h25m125 0h50m-200 1h25m125 0h50m-200 1h25m125 0h50m-200 1h25m125 0h50m-200 1h25m125 0h50m-200 1h25m125 0h50m-200 1h25m125 0h50m-200 1h25m125 0h50m-200 1h25m125 0h50m-200 1h25m125 0h50m-200 1h25m125 0h50m-200 1h25m125 0h50m-200 1h25m125 0h50m-200 1h25m125 0h50m-200 1h22m1 0h2m125 0h50m-200 1h25m125 0h50m-175 1h25m50 0h50m-125 1h25m50 0h50m-125 1h25m50 0h50m-125 1h25m50 0h50m-125 1h25m50 0h50m-125 1h25m50 0h50m-125 1h25m50 0h50m-125 1h25m50 0h50m-125 1h25m50 0h50m-125 1h25m50 0h50m-125 1h25m50 0h50m-125 1h25m50 0h50m-125 1h25m50 0h50m-125 1h25m50 0h50m-125 1h25m50 0h50m-125 1h25m50 0h50m-125 1h25m50 0h50m-125 1h25m50 0h50m-125 1h25m50 0h50m-125 1h25m50 0h50m-125 1h25m50 0h50m-125 1h25m50 0h50m-125 1h25m50 0h50m-125 1h25m50 0h50m-125 1h25m50 0h50m-100 1h50m-50 1h50m-50 1h50m-50 1h50m-50 1h50m-50 1h50m-50 1h50m-50 1h50m-50 1h50m-50 1h50m-50 1h50m-50 1h50m-50 1h50m-50 1h50m-50 1h50m-50 1h50m-50 1h50m-50 1h50m-50 1h50m-50 1h50m-50 1h50m-50 1h50m-50 1h50m-50 1h50m-50 1h50"/>
    <path stroke="#413f55" d="M389 222h1"/>
    <path stroke="#e2a3e3" d="M75 225h25m-25 1h25m-25 1h25m-25 1h25m-25 1h25m-25 1h25m-25 1h25m-25 1h25m-25 1h25m-25 1h25m-25 1h25m-25 1h25m-25 1h25m-25 1h25m-25 1h25m-25 1h25m-25 1h25m-25 1h25m-25 1h25m-25 1h25m-25 1h25m-25 1h25m-25 1h25m-25 1h25m-25 1h25m0 1h25m-25 1h25m-25 1h25m-25 1h25m-25 1h25m-25 1h25m-25 1h25m-25 1h25m-25 1h25m-25 1h25m-25 1h25m-25 1h25m-25 1h25m-25 1h25m-25 1h25m-25 1h25m-25 1h25m-25 1h25m-25 1h25m-25 1h25m-25 1h25m-25 1h25m-25 1h25m-25 1h25m-25 1h25"/>
    <path stroke="#915dcd" d="M75 250h25m-25 1h25m-25 1h25m-25 1h25m-25 1h25m-25 1h25m-25 1h25m-25 1h25m-25 1h25m-25 1h25m-25 1h25m-25 1h25m-25 1h25m-25 1h25m-25 1h25m-25 1h25m-25 1h25m-25 1h25m-25 1h25m-25 1h25m-25 1h25m-25 1h25m-25 1h25m-25 1h25m-25 1h25m0 1h25m-25 1h25m-25 1h25m-25 1h25m-25 1h25m-25 1h25m-25 1h25m-25 1h25m-25 1h25m-25 1h25m-25 1h25m-25 1h25m-25 1h25m-25 1h25m-25 1h25m-25 1h25m-25 1h25m-25 1h25m-25 1h25m-25 1h25m-25 1h25m-25 1h25m-25 1h25m-25 1h25m-25 1h25"/>
    <path stroke="#858fa5" d="M254 262h1"/>
    <path stroke="#413f56" d="M258 303h1"/>
    <path stroke="#433f54" d="M97 323h1"/>
</svg>
