<svg xmlns="http://www.w3.org/2000/svg" shape-rendering="crispEdges" viewBox="0 -0.5 16 16">
    <path stroke="#f2f0f2" d="M6 11h1"/>
    <path stroke="#adb0c5" d="M10 3h1"/>
    <path stroke="#7da9d2" d="M9 6h1m1 0h1M6 7h1m2 0h1M8 8h1"/>
    <path stroke="#4c4d67" d="M9 4h1M4 5h1"/>
    <path stroke="#dedee3" d="M8 10h1"/>
    <path stroke="#9a9fb4" d="M13 6h1M1 8h1m5 3h1m-3 1h1m1 0h1"/>
    <path stroke="#adb0c6" d="M12 5h1"/>
    <path stroke="#696d8a" d="M11 10h1"/>
    <path stroke="#878fa7" d="M8 12h1"/>
    <path stroke="#9cd3ff" d="M10 6h1"/>
    <path stroke="#868fa5" d="M10 10h1"/>
    <path stroke="#696d88" d="M14 8h1m-2 1h1m0 0h1m-3 1h1m-3 1h1"/>
    <path stroke="#878da5" d="M9 10h1"/>
    <path stroke="#4d4c65" d="M5 6h1"/>
    <path stroke="#e2a3e3" d="M4 10h1"/>
    <path stroke="#9a9fb5" d="M8 11h1"/>
    <path stroke="#413f56" d="M10 12h1m-3 1h1m-3 1h1"/>
    <path stroke="#caccd4" d="M7 9h1"/>
    <path stroke="#cbccd4" d="M9 3h1M8 4h1M6 5h1M5 8h1m3 0h1M6 9h1"/>
    <path stroke="#915fcd" d="M3 10h1m0 1h1"/>
    <path stroke="#878fa4" d="M12 9h1"/>
    <path stroke="#413f55" d="M1 10h1m2 3h1"/>
    <path stroke="#4d4c67" d="M10 2h1M6 4h1m5 2h1"/>
    <path stroke="#cbced4" d="M6 8h1"/>
    <path stroke="#f3f2f2" d="M1 7h1"/>
    <path stroke="#403f54" d="M15 8h1m-4 3h1"/>
    <path stroke="#7da8d2" d="M7 7h1"/>
    <path stroke="#9cd2ff" d="M8 7h1"/>
    <path stroke="#4f4d67" d="M9 2h1"/>
    <path stroke="#e2a1e3" d="M3 9h1"/>
    <path stroke="#f2f2f0" d="M5 11h1"/>
    <path stroke="#dedfe3" d="M7 4h1M5 5h1M4 6h1M2 7h1m10 0h1m0 0h1M4 8h1m7 0h1m-3 1h1m-5 1h1m-1 2h1"/>
    <path stroke="#58479e" d="M2 8h1"/>
    <path stroke="#cbcdd4" d="M3 7h1"/>
    <path stroke="#dbffff" d="M9 5h1"/>
    <path stroke="#5a479e" d="M3 8h1m0 1h1m-3 1h1m2 0h1m-3 1h1"/>
    <path stroke="#adb1c4" d="M12 7h1"/>
    <path stroke="#7ca9d3" d="M8 6h1"/>
    <path stroke="#c9ccd5" d="M4 7h1m1 6h1"/>
    <path stroke="#4d4d67" d="M7 3h1m0 0h1m2 0h1m-2 1h1m1 0h1M7 5h1m0 0h1m2 0h1m1 0h1M1 6h1m0 0h1m3 0h1m7 0h1M0 7h1m14 0h1M0 8h1"/>
    <path stroke="#7dabd2" d="M10 5h1"/>
    <path stroke="#adb0c4" d="M11 4h1m-1 3h1m-2 1h1"/>
    <path stroke="#413e54" d="M13 10h1m-9 4h1"/>
    <path stroke="#f2f2f2" d="M3 6h1m7 2h1M9 9h1m-3 1h1"/>
    <path stroke="#858fa5" d="M1 9h1"/>
    <path stroke="#413f54" d="M0 9h1m14 0h1m-2 1h1M2 11h1m8 0h1m-9 1h1m5 0h1m-3 1h1"/>
    <path stroke="#cbced6" d="M5 7h1m2 2h1"/>
    <path stroke="#dafeff" d="M7 6h1"/>
    <path stroke="#5a459e" d="M2 9h1m1 3h1"/>
    <path stroke="#dedde3" d="M5 9h1"/>
    <path stroke="#4d4d65" d="M5 4h1M3 5h1"/>
    <path stroke="#878ea5" d="M13 8h1"/>
    <path stroke="#878fa5" d="M11 9h1m-3 2h1m-5 2h1"/>
    <path stroke="#7ca9d2" d="M10 7h1M7 8h1"/>
</svg>
