<svg xmlns="http://www.w3.org/2000/svg" viewBox="0 0 503 76" fill="none">
    <g clip-path="url(#a)">
        <path d="M86.9804 22.9535s23.2576-3.6839 26.9306-14.4281H78.2827V0H0l9.6435 11.2401v11.5164s24.3329-1.2709 33.7453 5.8985C56.2728 40.6503 28.898 56.8651 28.898 56.8651l-4.6942 15.6027c7.3405-7.0206 21.3307-16.1028 46.981-15.665-9.7612 3.0987-19.5763 7.9388-27.2174 15.665h51.8524L90.937 56.8651s-37.5814-22.2592-3.9566-33.9102v-.0014Z"/>
    </g>
    <g clip-path="url(#b)">
        <path d="M158.32 50.1407c-2.748 2.6917-5.468 3.8413-9.092 3.8413-6.568 0-10.809-4.6755-10.809-11.9026 0-7.2271 4.619-12.0429 11.23-12.0429 3.42 0 6.105 1.1286 8.453 3.554l.288.2944 4.5-6.0705-.217-.2103c-3.449-3.3857-7.921-5.1031-13.298-5.1031-11.23 0-19.375 8.2015-19.375 19.5083 0 11.3068 7.529 19.5784 18.737 19.5784 5.727 0 10.221-1.8015 14.146-5.6639l.224-.2173-4.5-5.8392-.28.2734h-.007ZM195.423 42.9066c0 6.9818-3.288 10.9914-9.008 10.9914-5.285 0-7.963-3.2245-7.963-9.5824V23.188h-8.559v21.7865c0 10.1151 4.998 16.1506 13.368 16.1506 5.082 0 9.007-1.9487 11.685-5.7901l.238 4.8858H203V23.188h-7.577v19.7186ZM222.53 29.5812l-.183-6.4h-8.264v37.0329h8.559V42.325c0-3.6801 1.058-6.5401 3.147-8.4889 3.127-2.9231 7.753-3.0843 10.227-2.9231l.372.0281v-8.3137h-.35c-6.113 0-10.648 2.3413-13.508 6.9538ZM257.551 38.3642c-4.234-.9463-7.894-1.7595-7.894-4.7386 0-2.5586 2.468-4.0868 6.597-4.0868 3.743 0 6.883 1.2828 9.582 3.9115l.28.2734 4.438-5.6289-.232-.2173c-3.715-3.568-8.524-5.3765-14.279-5.3765-8.678 0-14.741 4.7456-14.741 11.5451 0 8.3347 7.136 9.8348 12.87 11.0475 4.395.9253 8.187 1.7244 8.187 5.0821 0 3.7363-4.136 4.297-6.596 4.297-4.269 0-7.634-1.465-10.914-4.7596l-.267-.2664-4.815 5.5307.238.2314c3.014 2.9651 7.535 6.3719 15.828 6.3719 8.762 0 14.882-4.8929 14.882-11.9027 0-8.3837-7.297-10.01-13.164-11.3208v.007ZM294.801 22.5361c-10.858 0-18.738 8.2646-18.738 19.6485 0 11.9798 7.494 19.7186 19.088 19.7186 6.624 0 11.566-2.0258 15.562-6.3789l.203-.2243-4.507-5.4606-.273.2663c-3.106 3.0493-6.316 4.4092-10.424 4.4092-6.449 0-10.41-3.547-11.188-10.003h27.892v-.3505c0-.3435.014-.6729.035-1.0024.021-.3435.035-.6799.035-1.0374 0-11.8957-6.939-19.5785-17.685-19.5785v-.007Zm-10.108 15.3796c1.079-5.4046 4.984-8.8745 10.038-8.8745s8.474 3.2316 9.218 8.8745h-19.256ZM330.656 20.398c0-4.3811 2.173-6.8977 5.965-6.8977 2.082 0 3.856.6379 5.58 2.0189l.316.2523 3.743-6.456-.26-.1823c-2.944-2.103-6.203-3.1264-9.968-3.1264-8.727 0-13.935 5.5238-13.935 14.7697v2.4114h-5.944l-1.942 7.5776h7.886v30.4436h8.559V30.7655h12.765v-7.5776h-12.765V20.398ZM364.317 22.291c-9.694 0-19.508 6.7715-19.508 19.7186 0 12.9471 9.779 19.6485 19.438 19.6485 9.66 0 19.438-6.7504 19.438-19.6485 0-12.898-9.743-19.7186-19.368-19.7186Zm-.07 31.9718c-5.475 0-11.019-4.2129-11.019-12.2532 0-8.0402 5.579-12.3232 11.089-12.3232 6.449 0 10.949 5.04 10.949 12.2531 0 8.0893-5.544 12.3233-11.019 12.3233ZM400.27 29.5812l-.182-6.4h-8.265v37.0329h8.559V42.325c0-3.6801 1.059-6.5401 3.148-8.4889 3.126-2.9231 7.746-3.0843 10.227-2.9231l.372.0281v-8.3137h-.351c-6.112 0-10.648 2.3413-13.501 6.9538h-.007ZM446.991 28.1652c-2.937-3.9114-7.27-5.9723-12.604-5.9723-10.29 0-18.043 8.2926-18.043 19.298 0 11.0054 7.36 19.1578 17.896 19.1578 5.208 0 9.631-2.124 12.575-6.0074v3.6101c0 6.9186-3.778 10.2834-11.545 10.2834-3.371 0-6.687-.7501-9.835-2.2222l-.343-.1612-2.671 7.0659.295.1402c3.778 1.7735 7.935 2.6427 12.701 2.6427 12.87 0 19.957-6.456 19.957-18.1694V23.1883h-8.25l-.126 4.9839-.007-.007Zm-10.929 25.1793c-5.909 0-10.038-4.8648-10.038-11.8326 0-6.9677 4.36-11.6924 10.599-11.6924s10.108 4.5915 10.108 11.6924c0 7.101-4.29 11.8326-10.669 11.8326ZM482.054 22.5361c-10.858 0-18.737 8.2646-18.737 19.6485 0 11.9798 7.493 19.7186 19.087 19.7186 6.625 0 11.574-2.0258 15.562-6.3789l.203-.2243-4.507-5.4606-.273.2663c-3.106 3.0493-6.316 4.4092-10.424 4.4092-6.449 0-10.409-3.547-11.187-10.003h27.892v-.3505c0-.3435.014-.6729.035-1.0024.021-.3435.035-.6799.035-1.0374 0-11.8957-6.94-19.5785-17.686-19.5785v-.007Zm-10.108 15.3796c1.079-5.4046 4.977-8.8745 10.038-8.8745s8.475 3.2316 9.218 8.8745h-19.256Z"/>
    </g>
    <defs>
        <clipPath id="a">
            <path d="M0 0h113.911v72.4678H0z"/>
        </clipPath>
        <clipPath id="b">
            <path d="M0 0h369.74v70H0z" transform="translate(130 6)"/>
        </clipPath>
    </defs>
</svg>
